<svg width="30" height="30" viewBox="0 0 30 30" fill="none" xmlns="http://www.w3.org/2000/svg">
<g id="mdi:account">
<path id="Vector" d="M15.2038 3.33301C16.7509 3.33301 18.2346 3.94759 19.3286 5.04155C20.4225 6.13551 21.0371 7.61925 21.0371 9.16634C21.0371 10.7134 20.4225 12.1972 19.3286 13.2911C18.2346 14.3851 16.7509 14.9997 15.2038 14.9997C13.6567 14.9997 12.1729 14.3851 11.079 13.2911C9.98502 12.1972 9.37044 10.7134 9.37044 9.16634C9.37044 7.61925 9.98502 6.13551 11.079 5.04155C12.1729 3.94759 13.6567 3.33301 15.2038 3.33301ZM15.2038 17.9163C21.6496 17.9163 26.8704 20.5268 26.8704 23.7497V26.6663H3.53711V23.7497C3.53711 20.5268 8.75794 17.9163 15.2038 17.9163Z" fill="white"/>
</g>
</svg>
