<svg width="19" height="18" viewBox="0 0 19 18" fill="white" xmlns="http://www.w3.org/2000/svg">
<g id="material-symbols:call">
<path id="Vector" d="M15.4625 15.75C13.85 15.75 12.2782 15.3905 10.7473 14.6715C9.21625 13.9525 7.86 13.0025 6.6785 11.8215C5.497 10.6405 4.547 9.28425 3.8285 7.75275C3.11 6.22125 2.7505 4.6495 2.75 3.0375C2.75 2.8125 2.825 2.625 2.975 2.475C3.125 2.325 3.3125 2.25 3.5375 2.25H6.575C6.75 2.25 6.90625 2.30625 7.04375 2.41875C7.18125 2.53125 7.2625 2.675 7.2875 2.85L7.775 5.475C7.8 5.65 7.79675 5.8095 7.76525 5.9535C7.73375 6.0975 7.662 6.2255 7.55 6.3375L5.75 8.175C6.275 9.075 6.93125 9.91875 7.71875 10.7062C8.50625 11.4937 9.375 12.175 10.325 12.75L12.0875 10.9875C12.2 10.875 12.347 10.7907 12.5285 10.7347C12.71 10.6788 12.888 10.663 13.0625 10.6875L15.65 11.2125C15.825 11.25 15.9688 11.3345 16.0812 11.466C16.1937 11.5975 16.25 11.7505 16.25 11.925V14.9625C16.25 15.1875 16.175 15.375 16.025 15.525C15.875 15.675 15.6875 15.75 15.4625 15.75Z" fill="#fff"/>
</g>
</svg>
