<svg width="30" height="30" viewBox="0 0 30 30" fill="none" xmlns="http://www.w3.org/2000/svg">
<g id="material-symbols:shopping-cart">
<path id="Vector" d="M8.75 27.5C8.0625 27.5 7.47375 27.255 6.98375 26.765C6.49375 26.275 6.24917 25.6867 6.25 25C6.25 24.3125 6.495 23.7238 6.985 23.2338C7.475 22.7438 8.06333 22.4992 8.75 22.5C9.4375 22.5 10.0262 22.745 10.5163 23.235C11.0063 23.725 11.2508 24.3133 11.25 25C11.25 25.6875 11.005 26.2763 10.515 26.7663C10.025 27.2563 9.43667 27.5008 8.75 27.5ZM21.25 27.5C20.5625 27.5 19.9737 27.255 19.4837 26.765C18.9937 26.275 18.7492 25.6867 18.75 25C18.75 24.3125 18.995 23.7238 19.485 23.2338C19.975 22.7438 20.5633 22.4992 21.25 22.5C21.9375 22.5 22.5263 22.745 23.0163 23.235C23.5063 23.725 23.7508 24.3133 23.75 25C23.75 25.6875 23.505 26.2763 23.015 26.7663C22.525 27.2563 21.9367 27.5008 21.25 27.5ZM6.5 5H24.9375C25.4167 5 25.7812 5.21375 26.0312 5.64125C26.2813 6.06875 26.2917 6.50083 26.0625 6.9375L21.625 14.9375C21.3958 15.3542 21.0883 15.6771 20.7025 15.9063C20.3167 16.1354 19.895 16.25 19.4375 16.25H10.125L8.75 18.75H23.75V21.25H8.75C7.8125 21.25 7.10417 20.8383 6.625 20.015C6.14583 19.1917 6.125 18.3742 6.5625 17.5625L8.25 14.5L3.75 5H1.25V2.5H5.3125L6.5 5Z" fill="white"/>
</g>
</svg>
