<svg width="20" height="20" viewBox="0 0 20 20" fill="none" xmlns="http://www.w3.org/2000/svg">
<g id="material-symbols:mail">
<path id="Vector" d="M3.33268 16.6663C2.87435 16.6663 2.48185 16.503 2.15518 16.1763C1.82852 15.8497 1.66546 15.4575 1.66602 14.9997V4.99968C1.66602 4.54134 1.82935 4.14884 2.15602 3.82218C2.48268 3.49551 2.87491 3.33245 3.33268 3.33301H16.666C17.1244 3.33301 17.5169 3.49634 17.8435 3.82301C18.1702 4.14968 18.3332 4.5419 18.3327 4.99968V14.9997C18.3327 15.458 18.1694 15.8505 17.8427 16.1772C17.516 16.5038 17.1238 16.6669 16.666 16.6663H3.33268ZM9.99935 10.833L16.666 6.66634V4.99968L9.99935 9.16634L3.33268 4.99968V6.66634L9.99935 10.833Z" fill="white"/>
</g>
</svg>
