<svg width="21" height="20" viewBox="0 0 21 20" fill="none" xmlns="http://www.w3.org/2000/svg">
<g id="mdi:twitter">
<path id="Vector" d="M19.6159 4.99967C18.9743 5.29134 18.2826 5.48301 17.566 5.57467C18.2993 5.13301 18.866 4.43301 19.1326 3.59134C18.441 4.00801 17.6743 4.29967 16.866 4.46634C16.2076 3.74967 15.2826 3.33301 14.2326 3.33301C12.2743 3.33301 10.6743 4.93301 10.6743 6.90801C10.6743 7.19134 10.7076 7.46634 10.766 7.72467C7.79928 7.57467 5.15762 6.14967 3.39928 3.99134C3.09095 4.51634 2.91595 5.13301 2.91595 5.78301C2.91595 7.02467 3.54095 8.12467 4.50762 8.74967C3.91595 8.74967 3.36595 8.58301 2.88262 8.33301V8.35801C2.88262 10.0913 4.11595 11.5413 5.74928 11.8663C5.22489 12.0098 4.67436 12.0298 4.14095 11.9247C4.36729 12.6351 4.81056 13.2567 5.40846 13.7021C6.00636 14.1476 6.72882 14.3944 7.47428 14.408C6.21064 15.4084 4.64428 15.9491 3.03262 15.9413C2.74928 15.9413 2.46595 15.9247 2.18262 15.8913C3.76595 16.908 5.64928 17.4997 7.66595 17.4997C14.2326 17.4997 17.841 12.0497 17.841 7.32467C17.841 7.16634 17.841 7.01634 17.8326 6.85801C18.5326 6.35801 19.1326 5.72467 19.6159 4.99967Z" fill="#196195"/>
</g>
</svg>
