<svg width="21" height="20" viewBox="0 0 21 20" fill="none" xmlns="http://www.w3.org/2000/svg">
<g id="mdi:instagram">
<path id="Vector" d="M7.40072 1.66699H14.4007C17.0674 1.66699 19.234 3.83366 19.234 6.50033V13.5003C19.234 14.7822 18.7248 16.0116 17.8184 16.918C16.912 17.8244 15.6826 18.3337 14.4007 18.3337H7.40072C4.73405 18.3337 2.56738 16.167 2.56738 13.5003V6.50033C2.56738 5.21845 3.07661 3.98907 3.98303 3.08264C4.88946 2.17622 6.11884 1.66699 7.40072 1.66699ZM7.23405 3.33366C6.4384 3.33366 5.67534 3.64973 5.11273 4.21234C4.55012 4.77495 4.23405 5.53801 4.23405 6.33366V13.667C4.23405 15.3253 5.57572 16.667 7.23405 16.667H14.5674C15.363 16.667 16.1261 16.3509 16.6887 15.7883C17.2513 15.2257 17.5674 14.4626 17.5674 13.667V6.33366C17.5674 4.67533 16.2257 3.33366 14.5674 3.33366H7.23405ZM15.2757 4.58366C15.552 4.58366 15.8169 4.69341 16.0123 4.88876C16.2076 5.08411 16.3174 5.34906 16.3174 5.62533C16.3174 5.90159 16.2076 6.16654 16.0123 6.3619C15.8169 6.55725 15.552 6.66699 15.2757 6.66699C14.9994 6.66699 14.7345 6.55725 14.5391 6.3619C14.3438 6.16654 14.234 5.90159 14.234 5.62533C14.234 5.34906 14.3438 5.08411 14.5391 4.88876C14.7345 4.69341 14.9994 4.58366 15.2757 4.58366ZM10.9007 5.83366C12.0058 5.83366 13.0656 6.27265 13.847 7.05405C14.6284 7.83545 15.0674 8.89526 15.0674 10.0003C15.0674 11.1054 14.6284 12.1652 13.847 12.9466C13.0656 13.728 12.0058 14.167 10.9007 14.167C9.79565 14.167 8.73584 13.728 7.95444 12.9466C7.17304 12.1652 6.73405 11.1054 6.73405 10.0003C6.73405 8.89526 7.17304 7.83545 7.95444 7.05405C8.73584 6.27265 9.79565 5.83366 10.9007 5.83366ZM10.9007 7.50033C10.2377 7.50033 9.60179 7.76372 9.13295 8.23256C8.66411 8.7014 8.40072 9.33728 8.40072 10.0003C8.40072 10.6634 8.66411 11.2993 9.13295 11.7681C9.60179 12.2369 10.2377 12.5003 10.9007 12.5003C11.5638 12.5003 12.1996 12.2369 12.6685 11.7681C13.1373 11.2993 13.4007 10.6634 13.4007 10.0003C13.4007 9.33728 13.1373 8.7014 12.6685 8.23256C12.1996 7.76372 11.5638 7.50033 10.9007 7.50033Z" fill="#196195"/>
</g>
</svg>
