<svg width="31" height="30" viewBox="0 0 31 30" fill="none" xmlns="http://www.w3.org/2000/svg">
<g id="fluent:notepad-28-filled">
<path id="Vector" d="M15.5008 2.14258C15.714 2.14258 15.9183 2.22724 16.069 2.37794C16.2197 2.52864 16.3044 2.73303 16.3044 2.94615V4.28544H20.3223V2.94615C20.3223 2.73303 20.4069 2.52864 20.5576 2.37794C20.7083 2.22724 20.9127 2.14258 21.1258 2.14258C21.339 2.14258 21.5433 2.22724 21.694 2.37794C21.8447 2.52864 21.9294 2.73303 21.9294 2.94615V4.28544H22.733C23.3723 4.28544 23.9855 4.53942 24.4376 4.99152C24.8897 5.44361 25.1437 6.05679 25.1437 6.69615V19.8169H20.0501C19.4108 19.8169 18.7976 20.0708 18.3455 20.5229C17.8934 20.975 17.6394 21.5882 17.6394 22.2276V27.3211H7.73298C7.09362 27.3211 6.48044 27.0672 6.02835 26.6151C5.57625 26.163 5.32227 25.5498 5.32227 24.9104V6.69615C5.32227 6.05679 5.57625 5.44361 6.02835 4.99152C6.48044 4.53942 7.09362 4.28544 7.73298 4.28544H9.07227V2.94615C9.07227 2.73303 9.15693 2.52864 9.30763 2.37794C9.45833 2.22724 9.66272 2.14258 9.87584 2.14258C10.089 2.14258 10.2933 2.22724 10.444 2.37794C10.5947 2.52864 10.6794 2.73303 10.6794 2.94615V4.28544H14.6973V2.94615C14.6973 2.73303 14.7819 2.52864 14.9326 2.37794C15.0833 2.22724 15.2877 2.14258 15.5008 2.14258ZM9.07227 10.9819C9.07227 11.4254 9.43227 11.7854 9.87584 11.7854H20.5901C20.8032 11.7854 21.0076 11.7008 21.1583 11.5501C21.309 11.3994 21.3937 11.195 21.3937 10.9819C21.3937 10.7687 21.309 10.5644 21.1583 10.4137C21.0076 10.263 20.8032 10.1783 20.5901 10.1783H9.87584C9.66272 10.1783 9.45833 10.263 9.30763 10.4137C9.15693 10.5644 9.07227 10.7687 9.07227 10.9819ZM9.07227 15.8033C9.07227 16.2469 9.43227 16.6069 9.87584 16.6069H20.5901C20.8032 16.6069 21.0076 16.5222 21.1583 16.3715C21.309 16.2208 21.3937 16.0164 21.3937 15.8033C21.3937 15.5902 21.309 15.3858 21.1583 15.2351C21.0076 15.0844 20.8032 14.9997 20.5901 14.9997H9.87584C9.66272 14.9997 9.45833 15.0844 9.30763 15.2351C9.15693 15.3858 9.07227 15.5902 9.07227 15.8033ZM9.07227 20.6247C9.07227 21.0683 9.43227 21.4283 9.87584 21.4283H14.6973C14.9104 21.4283 15.1148 21.3436 15.2655 21.1929C15.4162 21.0422 15.5008 20.8378 15.5008 20.6247C15.5008 20.4116 15.4162 20.2072 15.2655 20.0565C15.1148 19.9058 14.9104 19.8211 14.6973 19.8211H9.87584C9.66272 19.8211 9.45833 19.9058 9.30763 20.0565C9.15693 20.2072 9.07227 20.4116 9.07227 20.6247ZM19.2466 26.8497L24.6733 21.424H20.0501C19.837 21.424 19.6326 21.5087 19.4819 21.6594C19.3312 21.8101 19.2466 22.0145 19.2466 22.2276V26.8508V26.8497Z" fill="white"/>
</g>
</svg>
