<svg width="31" height="30" viewBox="0 0 31 30" fill="none" xmlns="http://www.w3.org/2000/svg">
<g id="ri:file-paper-fill">
<path id="Subtract" fill-rule="evenodd" clip-rule="evenodd" d="M4.25 18.75L4.25 3.75C4.25 3.41848 4.3817 3.10054 4.61612 2.86612C4.85054 2.6317 5.16848 2.5 5.5 2.5L25.5 2.5C25.8315 2.5 26.1495 2.6317 26.3839 2.86612C26.6183 3.10054 26.75 3.41848 26.75 3.75L26.75 23.75C26.75 24.7446 26.3549 25.6984 25.6516 26.4017C24.9484 27.1049 23.9946 27.5 23 27.5L5.5 27.5C4.50543 27.5 3.55161 27.1049 2.84835 26.4017C2.14508 25.6984 1.75 24.7446 1.75 23.75L1.75 21.25L21.75 21.25L21.75 23.75C21.75 24.0815 21.8817 24.3995 22.1161 24.6339C22.3505 24.8683 22.6685 25 23 25C23.3315 25 23.6495 24.8683 23.8839 24.6339C24.1183 24.3995 24.25 24.0815 24.25 23.75L24.25 18.75L4.25 18.75ZM6.5 5.99902L24.5 5.99903L24.5 8.39903L6.5 8.39902L6.5 5.99902ZM24.5 11.3984L6.5 11.3984L6.5 13.7984L24.5 13.7984L24.5 11.3984Z" fill="white"/>
</g>
</svg>
