<svg width="21" height="20" viewBox="0 0 21 20" fill="none" xmlns="http://www.w3.org/2000/svg">
<g id="uil:facebook">
<path id="Vector" d="M18.3174 1.66699H3.48405C3.24093 1.66699 3.00778 1.76357 2.83587 1.93548C2.66396 2.10739 2.56738 2.34054 2.56738 2.58366V17.417C2.56738 17.6601 2.66396 17.8933 2.83587 18.0652C3.00778 18.2371 3.24093 18.3337 3.48405 18.3337H11.4674V11.8753H9.30072V9.37533H11.4674V7.50033C11.4225 7.06012 11.4745 6.61543 11.6196 6.19744C11.7648 5.77945 11.9997 5.39828 12.3078 5.08067C12.6159 4.76306 12.9897 4.51669 13.4031 4.35886C13.8164 4.20102 14.2594 4.13554 14.7007 4.16699C15.3493 4.163 15.9976 4.19639 16.6424 4.26699V6.51699H15.3174C14.2674 6.51699 14.0674 7.01699 14.0674 7.74199V9.35033H16.5674L16.2424 11.8503H14.0674V18.3337H18.3174C18.4378 18.3337 18.557 18.3099 18.6682 18.2639C18.7794 18.2178 18.8804 18.1503 18.9656 18.0652C19.0507 17.9801 19.1182 17.879 19.1643 17.7678C19.2103 17.6566 19.234 17.5374 19.234 17.417V2.58366C19.234 2.46328 19.2103 2.34408 19.1643 2.23287C19.1182 2.12165 19.0507 2.0206 18.9656 1.93548C18.8804 1.85036 18.7794 1.78284 18.6682 1.73677C18.557 1.6907 18.4378 1.66699 18.3174 1.66699Z" fill="#196195"/>
</g>
</svg>
